<svg xmlns="http://www.w3.org/2000/svg" viewBox="0 0 24.96 22"><defs><style>.cls-1{fill:#cc262d;}</style></defs><title>Recurso 1preload_logo</title><g id="Capa_2" data-name="Capa 2"><g id="Capa_1-2" data-name="Capa 1"><path class="cls-1" d="M.73,0A.73.73,0,0,0,0,.72V12.54C0,18.27,3.68,22,9.4,22h4.87a.73.73,0,0,0,.73-.72V15.45a.73.73,0,0,0-.73-.72h-3.1a2.09,2.09,0,0,1-2.26-2.26V.72A.73.73,0,0,0,8.18,0Z"/><path class="cls-1" d="M10.71,3.18A.73.73,0,0,0,10,3.9v6.67a.73.73,0,0,0,.73.72h3.55c.4,0,1.8.07,1.8,2.26v7.73a.72.72,0,0,0,.72.72h7.46a.72.72,0,0,0,.72-.72V12.63c0-5.72-3.68-9.45-9.4-9.45Z"/></g></g></svg>